<svg width="36" height="37" viewBox="0 0 36 37" fill="none" xmlns="http://www.w3.org/2000/svg">
<path d="M17.0489 4.55205C17.3483 3.63074 18.6517 3.63074 18.9511 4.55205L21.6484 12.8535C21.7822 13.2655 22.1662 13.5445 22.5994 13.5445H31.328C32.2968 13.5445 32.6995 14.7841 31.9158 15.3535L24.8542 20.484C24.5037 20.7387 24.3571 21.19 24.4909 21.6021L27.1882 29.9035C27.4876 30.8248 26.4331 31.5909 25.6494 31.0215L18.5878 25.891C18.2373 25.6363 17.7627 25.6363 17.4122 25.891L10.3506 31.0215C9.56689 31.5909 8.51241 30.8248 8.81176 29.9035L11.5091 21.6021C11.6429 21.19 11.4963 20.7387 11.1458 20.484L4.08417 15.3535C3.30046 14.7841 3.70323 13.5445 4.67196 13.5445H13.4006C13.8338 13.5445 14.2178 13.2655 14.3516 12.8535L17.0489 4.55205Z" fill="#FFCC47"/>
</svg>
